HIERARCHY
ROOT Hips
{
	OFFSET 0.000000 0.000000 0.000000
	CHANNELS 6 Xposition Yposition Zposition Zrotation Yrotation Xrotation 
	JOINT LHipJoint
	{
		OFFSET 0.000000 0.000000 0.000000
		CHANNELS 3 Zrotation Yrotation Xrotation
		JOINT LeftUpLeg
		{
			OFFSET 1.363060 -1.794630 0.839290
			CHANNELS 3 Zrotation Yrotation Xrotation
			JOINT LeftLeg
			{
				OFFSET 2.448110 -6.726130 0.000000
				CHANNELS 3 Zrotation Yrotation Xrotation
				JOINT LeftFoot
				{
					OFFSET 2.562200 -7.039590 0.000000
					CHANNELS 3 Zrotation Yrotation Xrotation
					JOINT LeftToeBase
					{
						OFFSET 0.157640 -0.433110 2.322550
						CHANNELS 3 Zrotation Yrotation Xrotation
						End Site
						{
							OFFSET 0.000000 0.000000 0.000000
						}
					}
				}
			}
		}
	}
	JOINT RHipJoint
	{
		OFFSET 0.000000 0.000000 0.000000
		CHANNELS 3 Zrotation Yrotation Xrotation
		JOINT RightUpLeg
		{
			OFFSET -1.305520 -1.794630 0.839290
			CHANNELS 3 Zrotation Yrotation Xrotation
			JOINT RightLeg
			{
				OFFSET -2.542530 -6.985550 0.000000
				CHANNELS 3 Zrotation Yrotation Xrotation
				JOINT RightFoot
				{
					OFFSET -2.568260 -7.056230 0.000000
					CHANNELS 3 Zrotation Yrotation Xrotation
					JOINT RightToeBase
					{
						OFFSET -0.164730 -0.452590 2.363150
						CHANNELS 3 Zrotation Yrotation Xrotation
						End Site
						{
							OFFSET 0.000000 0.000000 0.000000
						}
					}
				}
			}
		}
	}
	JOINT LowerBack
	{
		OFFSET 0.000000 0.000000 0.000000
		CHANNELS 3 Zrotation Yrotation Xrotation
		JOINT Spine
		{
			OFFSET 0.028270 2.035590 -0.193380
			CHANNELS 3 Zrotation Yrotation Xrotation
			JOINT Spine1
			{
				OFFSET 0.056720 2.048850 -0.042750
				CHANNELS 3 Zrotation Yrotation Xrotation
				JOINT Neck
				{
					OFFSET 0.000000 0.000000 0.000000
					CHANNELS 3 Zrotation Yrotation Xrotation
					JOINT Neck1
					{
						OFFSET -0.054170 1.746240 0.172020
						CHANNELS 3 Zrotation Yrotation Xrotation
						JOINT Head
						{
							OFFSET 0.104070 1.761360 -0.123970
							CHANNELS 3 Zrotation Yrotation Xrotation
							End Site
							{
								OFFSET 0.000000 0.000000 0.000000
							}
						}
					}
				}
				JOINT LeftShoulder
				{
					OFFSET 0.000000 0.000000 0.000000
					CHANNELS 3 Zrotation Yrotation Xrotation
					JOINT LeftArm
					{
						OFFSET 3.362410 1.200890 -0.311210
						CHANNELS 3 Zrotation Yrotation Xrotation
						JOINT LeftForeArm
						{
							OFFSET 4.983000 -0.000000 -0.000000
							CHANNELS 3 Zrotation Yrotation Xrotation
							JOINT LeftHand
							{
								OFFSET 3.483560 -0.000000 -0.000000
								CHANNELS 3 Zrotation Yrotation Xrotation
								JOINT LeftFingerBase
								{
									OFFSET 0.000000 0.000000 0.000000
									CHANNELS 3 Zrotation Yrotation Xrotation
									JOINT LeftHandIndex1
									{
										OFFSET 0.715260 -0.000000 -0.000000
										CHANNELS 3 Zrotation Yrotation Xrotation
										End Site
										{
											OFFSET 0.000000 0.000000 0.000000
										}
									}
								}
								JOINT LThumb
								{
									OFFSET 0.000000 0.000000 0.000000
									CHANNELS 3 Zrotation Yrotation Xrotation
									End Site
									{
										OFFSET 0.000000 0.000000 0.000000
									}
								}
							}
						}
					}
				}
				JOINT RightShoulder
				{
					OFFSET 0.000000 0.000000 0.000000
					CHANNELS 3 Zrotation Yrotation Xrotation
					JOINT RightArm
					{
						OFFSET -3.136600 1.374050 -0.404650
						CHANNELS 3 Zrotation Yrotation Xrotation
						JOINT RightForeArm
						{
							OFFSET -5.241900 -0.000000 -0.000000
							CHANNELS 3 Zrotation Yrotation Xrotation
							JOINT RightHand
							{
								OFFSET -3.444170 -0.000000 -0.000000
								CHANNELS 3 Zrotation Yrotation Xrotation
								JOINT RightFingerBase
								{
									OFFSET 0.000000 0.000000 0.000000
									CHANNELS 3 Zrotation Yrotation Xrotation
									JOINT RightHandIndex1
									{
										OFFSET -0.622530 -0.000000 -0.000000
										CHANNELS 3 Zrotation Yrotation Xrotation
										End Site
										{
											OFFSET 0.000000 0.000000 0.000000
										}
									}
								}
								JOINT RThumb
								{
									OFFSET 0.000000 0.000000 0.000000
									CHANNELS 3 Zrotation Yrotation Xrotation
									End Site
									{
										OFFSET 0.000000 0.000000 0.000000
									}
								}
							}
						}
					}
				}
			}
		}
	}
}
MOTION
Frames: 8
Frame Time: 0.008333
0.268345 20.185833 -3.490778 -1.832772 3.029749 3.726172 -0.346863 -0.716594 -0.459568 -14.337773 -1.294454 -28.335279 3.797069 13.329279 38.186387 -1.037549 9.222718 11.590606 0.041587 1.297769 3.568820 -1.292405 0.147253 -0.273622 19.218588 4.198845 -23.782178 -3.009684 -11.824555 33.546514 1.034235 -11.471123 12.942224 -0.462310 -4.356432 12.082321 -0.026754 0.137970 6.417898 1.390747 0.367353 -1.601926 1.709480 -0.183734 4.930686 -3.772545 -1.545500 -7.407812 4.489403 -2.044864 27.050542 0.893932 -0.381530 9.796493 9.290061 5.289655 0.561892 -97.089856 -4.088727 31.813273 6.729889 -15.507551 -0.845404 -0.090355 -0.727538 -15.839539 26.686424 -7.353931 -3.338055 -7.125000 0.000000 0.000000 0.162425 22.604883 -0.087504 -8.364802 -4.472867 0.112634 95.501317 3.938872 17.637186 -12.238165 24.937341 -3.105003 0.754820 0.861677 28.674965 -24.201512 -23.110949 10.595949 7.125000 0.000000 0.000000 5.406979 -56.267055 -1.497044
0.267609 20.077593 -3.234971 -1.854490 2.780839 3.904153 -0.441498 -0.837632 -0.524778 -14.281257 -1.284761 -29.182893 2.989855 12.451414 35.079166 -0.970407 8.438243 10.513583 0.007933 0.502285 1.380262 -1.185210 0.260445 -0.312853 18.953256 4.576857 -25.129487 -2.342833 -10.989266 30.641849 0.847107 -10.645789 13.438148 -0.323462 -3.647237 10.087269 -0.093724 0.252818 6.735224 1.360160 0.520319 -1.593720 1.645286 -0.101191 4.830366 -3.675086 -1.551751 -7.498218 4.557356 -2.088902 27.139783 0.897516 -0.383028 9.870358 9.281662 5.314468 0.570155 -97.120323 -3.453579 31.112782 6.435782 -14.977956 -0.757495 -0.102740 -0.729593 -15.262586 26.698987 -7.320939 -3.323032 -7.125000 0.000000 0.000000 0.177482 22.642950 -0.095442 -8.360308 -4.489108 0.115900 95.783540 3.570028 17.400125 -12.118720 24.762767 -3.045589 0.759915 0.864914 28.620421 -24.388435 -23.196906 10.724763 7.125000 0.000000 0.000000 5.236134 -56.404450 -1.466957
0.267131 19.948252 -2.972006 -1.930767 2.542303 4.067118 -0.543700 -0.954758 -0.584925 -14.132479 -1.285058 -29.893189 2.205371 11.485283 31.823275 -0.920848 7.812799 9.402214 0.003685 -0.363286 -0.998240 -1.076259 0.370592 -0.356473 18.768686 4.863786 -26.399069 -1.721820 -10.109474 27.698826 0.707423 -10.178057 13.987063 -0.211320 -2.957860 8.161505 -0.101710 0.365308 6.980841 1.333848 0.671081 -1.590099 1.564750 -0.017531 4.749808 -3.574263 -1.562272 -7.578031 4.630953 -2.143049 27.246145 0.902741 -0.388036 9.945886 9.273759 5.344029 0.579528 -97.153768 -2.785660 30.371209 6.124602 -14.412781 -0.667251 -0.116756 -0.731656 -14.617371 26.697147 -7.306598 -3.315274 -7.125000 0.000000 0.000000 0.181547 22.661321 -0.097589 -8.354795 -4.510304 0.119847 96.048135 3.140490 17.208856 -11.995943 24.589512 -2.985424 0.765271 0.868378 28.596181 -24.574968 -23.282934 10.854165 7.125000 0.000000 0.000000 5.065820 -56.542768 -1.436066
0.266317 19.794093 -2.700101 -2.048291 2.331722 4.184391 -0.648360 -1.062080 -0.638149 -13.903950 -1.317806 -30.416746 1.483598 10.449537 28.513527 -0.896435 7.335848 8.090803 0.045743 -1.332960 -3.666051 -0.974948 0.472284 -0.404309 18.671310 5.024242 -27.567170 -1.185970 -9.234621 24.890072 0.610890 -9.952620 14.439557 -0.134147 -2.353316 6.483503 -0.067940 0.470961 7.118923 1.312905 0.812861 -1.583272 1.482716 0.062014 4.726981 -3.487317 -1.579217 -7.607567 4.716035 -2.211166 27.342551 0.913841 -0.400109 9.995533 9.265699 5.378532 0.594579 -97.206886 -2.139377 29.484984 5.760977 -13.743872 -0.567436 -0.134596 -0.732508 -13.701356 26.630645 -7.301195 -3.303331 -7.125000 0.000000 0.000000 0.137974 22.672810 -0.074135 -8.347828 -4.540785 0.127677 96.290814 2.662565 17.045342 -11.858181 24.401558 -2.919139 0.773151 0.871386 28.616574 -24.828308 -23.348881 11.010221 7.125000 0.000000 0.000000 4.813630 -56.676539 -1.379861
0.265042 19.617525 -2.420017 -2.174276 2.146268 4.240639 -0.749237 -1.156642 -0.684677 -13.636281 -1.397430 -30.773559 0.843961 9.401972 25.293180 -0.881693 6.937833 6.650048 0.138679 -2.387675 -6.578849 -0.887315 0.563571 -0.454164 18.627551 5.068556 -28.654581 -0.742981 -8.427281 22.367201 0.524162 -9.794331 14.873212 -0.087410 -1.904896 5.242886 -0.029725 0.572695 7.155471 1.295825 0.948606 -1.567917 1.416367 0.136351 4.775030 -3.421314 -1.605559 -7.593757 4.805382 -2.292553 27.432604 0.928829 -0.420214 10.021136 9.257098 5.417127 0.616561 -97.289319 -1.555600 28.381579 5.336783 -12.952967 -0.458543 -0.154997 -0.731361 -12.423487 26.457370 -7.213494 -3.235447 -7.125000 0.000000 0.000000 0.017713 22.781547 -0.009508 -8.338554 -4.580091 0.139757 96.507307 2.181859 16.875211 -11.689529 24.172497 -2.838998 0.784149 0.874552 28.666984 -25.162983 -23.405993 11.205444 7.125000 0.000000 0.000000 4.467221 -56.822012 -1.296009
0.263441 19.411088 -2.129667 -2.297542 1.993502 4.186704 -0.837728 -1.231500 -0.723516 -13.333721 -1.564693 -30.935983 0.331207 8.422498 22.390565 -0.865254 6.600346 5.216539 0.296226 -3.482286 -9.626202 -0.822022 0.639434 -0.503823 18.652035 4.951043 -29.649078 -0.425185 -7.785286 20.399391 0.418700 -9.634770 15.468481 -0.063375 -1.623268 4.465551 0.005246 0.673088 7.079704 1.283043 1.081492 -1.535539 1.373794 0.205584 4.922860 -3.387599 -1.645511 -7.525754 4.899058 -2.391618 27.521956 0.949612 -0.451485 10.018197 9.247229 5.459312 0.649251 -97.428298 -1.100746 26.790150 4.821641 -11.971092 -0.338999 -0.179831 -0.725601 -10.498333 26.091286 -6.998980 -3.080759 -7.125000 0.000000 0.000000 -0.243135 23.039170 0.128339 -8.325259 -4.629469 0.157614 96.673016 1.750868 16.675245 -11.463363 23.861247 -2.733696 0.798041 0.879473 28.754387 -25.552007 -23.489599 11.442467 7.125000 0.000000 0.000000 4.069690 -57.012502 -1.198986
0.261935 19.174212 -1.830577 -2.403709 1.872502 3.986215 -0.907000 -1.284831 -0.754613 -13.024551 -1.834235 -30.939142 -0.045523 7.600764 20.016774 -0.844687 6.312071 3.904882 0.490936 -4.482209 -12.439074 -0.781224 0.698196 -0.547931 18.746450 4.663185 -30.539479 -0.228662 -7.370812 19.135363 0.278010 -9.385008 16.260209 -0.048291 -1.417114 3.897339 0.030163 0.773547 6.953744 1.271903 1.214142 -1.490410 1.346641 0.271923 5.126192 -3.372247 -1.700479 -7.412837 4.988497 -2.509873 27.644170 0.970696 -0.493297 10.008049 9.236196 5.501632 0.690290 -97.619506 -0.781725 24.466010 4.219043 -10.791160 -0.214571 -0.210838 -0.712395 -7.719790 25.512680 -6.665333 -2.846790 -7.125000 0.000000 0.000000 -0.662541 23.433658 0.343936 -8.307898 -4.682716 0.179482 96.784009 1.387055 16.405783 -11.173459 23.452817 -2.601539 0.814406 0.885518 28.938848 -25.946308 -23.611860 11.702082 7.125000 0.000000 0.000000 3.678995 -57.249358 -1.104674
0.261042 18.905224 -1.525441 -2.497393 1.781839 3.586451 -0.950265 -1.313947 -0.777122 -12.723147 -2.217659 -30.802114 -0.278022 7.035721 18.413841 -0.829109 6.098337 2.732774 0.680710 -5.273013 -14.689554 -0.768033 0.736394 -0.579501 18.899086 4.298233 -31.233825 -0.155744 -7.241143 18.725636 0.112822 -8.984091 17.090028 -0.035854 -1.220782 3.356513 0.052002 0.870625 6.868584 1.263066 1.344173 -1.436505 1.329636 0.334822 5.331051 -3.348224 -1.768186 -7.301280 5.049843 -2.638824 27.843933 0.979007 -0.539556 10.028814 9.225248 5.540573 0.734603 -97.859003 -0.604273 21.448833 3.547622 -9.435089 -0.093037 -0.247814 -0.690202 -4.103760 24.819539 -6.239203 -2.566133 -7.125000 0.000000 0.000000 -1.171336 23.926177 0.595633 -8.284940 -4.730282 0.202191 96.834983 1.126991 16.012282 -10.814611 22.930351 -2.441558 0.834539 0.889870 29.315406 -26.333852 -23.743748 11.966061 7.125000 0.000000 0.000000 3.296795 -57.498177 -1.009574
